<svg width="18" height="18" viewBox="0 0 18 18" fill="none" xmlns="http://www.w3.org/2000/svg">
<path d="M8.99996 0.666626C4.40829 0.666626 0.666626 4.40829 0.666626 8.99996C0.666626 13.5916 4.40829 17.3333 8.99996 17.3333C13.5916 17.3333 17.3333 13.5916 17.3333 8.99996C17.3333 4.40829 13.5916 0.666626 8.99996 0.666626ZM12.625 11.975C12.5083 12.175 12.3 12.2833 12.0833 12.2833C11.975 12.2833 11.8666 12.2583 11.7666 12.1916L9.18329 10.65C8.54163 10.2666 8.06663 9.42496 8.06663 8.68329V5.26663C8.06663 4.92496 8.34996 4.64163 8.69163 4.64163C9.03329 4.64163 9.31663 4.92496 9.31663 5.26663V8.68329C9.31663 8.98329 9.56663 9.42496 9.82496 9.57496L12.4083 11.1166C12.7083 11.2916 12.8083 11.675 12.625 11.975Z" fill="#8D8D8D"/>
</svg>
